<svg xmlns="http://www.w3.org/2000/svg" width="1024" zoomAndPan="magnify" viewBox="0 0 768 768" height="1024" preserveAspectRatio="xMidYMid meet" xmlns:v="https://vecta.io/nano"><style><![CDATA[.B{clip-rule:nonzero}.C{fill-rule:evenodd}.D{clip-rule:evenodd}.E{fill:#f0f1f4}]]></style><defs><clipPath id="A"><path d="M215.664 352.992H398V586H215.664zm0 0" class="B"/></clipPath><clipPath id="B"><path d="M307.773 586.223l92.113-233.23H215.664l92.109 233.23" class="B"/></clipPath><clipPath id="C"><path d="M262.246 437.246h41.488v148.977h-41.488zm0 0" class="B"/></clipPath><clipPath id="D"><path d="M176.109 45.578h255.48v309h-255.48zm0 0" class="B"/></clipPath><clipPath id="E"><path d="M249 100h101v15H249zm0 0" class="B"/></clipPath><clipPath id="F"><path d="M211.324 355.305s-33.273-27.145-16.059-54.199c-36.902-41.797-12.227-94.656 16.059-108.184-7.988-34.418 11.637-69.891 58.98-81.141 0 0 48.961-22.836 29.199-62.375-.488-1.004-.258-2.223.57-2.977s2.066-.879 3.027-.297c43.508 26.148 33.625 65.648 33.625 65.648 47.336 11.25 78.648 62.699 58.973 102.043 28.293 13.52 55.426 63.926 18.523 105.723 17.215 27.055-18.523 35.758-18.523 35.758" class="D"/></clipPath><clipPath id="G"><path d="M191 301h234v29H191zm0 0" class="B"/></clipPath><clipPath id="H"><path d="M211.324 355.305s-33.273-27.145-16.059-54.199c-36.902-41.797-12.227-94.656 16.059-108.184-7.988-34.418 11.637-69.891 58.98-81.141 0 0 48.961-22.836 29.199-62.375-.488-1.004-.258-2.223.57-2.977s2.066-.879 3.027-.297c43.508 26.148 33.625 65.648 33.625 65.648 47.336 11.25 78.648 62.699 58.973 102.043 28.293 13.52 55.426 63.926 18.523 105.723 17.215 27.055-18.523 35.758-18.523 35.758" class="D"/></clipPath><clipPath id="I"><path d="M192 192h223v37H192zm0 0" class="B"/></clipPath><clipPath id="J"><path d="M211.324 355.305s-33.273-27.145-16.059-54.199c-36.902-41.797-12.227-94.656 16.059-108.184-7.988-34.418 11.637-69.891 58.98-81.141 0 0 48.961-22.836 29.199-62.375-.488-1.004-.258-2.223.57-2.977s2.066-.879 3.027-.297c43.508 26.148 33.625 65.648 33.625 65.648 47.336 11.25 78.648 62.699 58.973 102.043 28.293 13.52 55.426 63.926 18.523 105.723 17.215 27.055-18.523 35.758-18.523 35.758" class="D"/></clipPath></defs><path fill="#f44336" d="M192.094-.094c-106.031 0-192 85.969-192 192v384c0 106.031 85.969 192 192 192h384c106.031 0 192-85.969 192-192v-384c0-106.031-85.969-192-192-192zm0 0"/><g clip-path="url(#A)"><g clip-path="url(#B)"><path fill="#f9ad48" d="M215.664 352.992h182.023v232.59H215.664zm0 0"/></g></g><g clip-path="url(#C)"><path fill="#f9ad48" d="M262.246 437.246h43.621v150.258h-43.621zm0 0"/></g><g clip-path="url(#D)" class="C"><path fill="#fdfdfe" d="M211.324 355.305s-33.273-27.145-16.059-54.199c-36.902-41.797-12.227-94.656 16.059-108.184-7.988-34.418 11.633-69.891 58.98-81.141 0 0 48.961-22.836 29.199-62.375-.488-1.004-.258-2.223.57-2.977s2.066-.879 3.027-.297c43.508 26.148 33.625 65.648 33.625 65.648 47.336 11.25 78.648 62.699 58.973 102.043 28.293 13.52 55.426 63.926 18.523 105.723 17.215 27.055-18.523 35.758-18.523 35.758"/></g><g clip-path="url(#E)" class="C E"><g clip-path="url(#F)"><path d="M336.727 111.781s-29.371-5.992-66.422 0c-37.059 5.996-13.137-10.602-13.137-10.602s59.105-5.07 92.32 10.602c-2.77 5.535-12.762 0-12.762 0zm0 0"/></g></g><g clip-path="url(#G)" class="C E"><g clip-path="url(#H)"><path d="M191.316 309.977s36.238 7.57 93.352 9.57c68.434 2.398 139.391 9.84 139.391 9.84l-9.836-9.84s-45.926-5.734-129.555-9.57c-83.563-3.844-89.402-8.871-89.402-8.871zm0 0"/></g></g><g clip-path="url(#I)" class="C E"><g clip-path="url(#J)"><path d="M211.324 192.922s133.09 3.918 184.375 20.902c12.535-3.309 18.578 14.633 18.578 14.633C337.539 209.059 271.07 204.855 197 203.488l-4.641-10.566zm0 0"/></g></g><path d="M434.357 404.803h34.418c21.445 0 38.402-15.465 38.402-34.418 0-14.961-9.477-23.441-26.934-23.941h-49.875l-9.477.5c-20.449.5-25.937 2.992-34.418 17.457l-5.984 10.477-118.207 201.004V479.62c0-46.387-2.496-70.328-8.98-89.281-9.477-26.934-43.391-47.383-79.305-47.383-72.82 0-135.664 62.344-135.664 134.668 0 50.875 39.402 90.777 88.781 90.777 35.91 0 61.348-15.961 61.348-38.906 0-12.469-12.469-23.941-25.937-23.441l-20.945.5c-20.949.496-37.41-15.465-37.41-35.414 0-34.414 30.426-67.336 62.348-67.336 12.469 0 23.441 8.48 27.93 21.949 3.492 9.477 3.992 16.457 4.988 53.867l3.992 164.094c.496 15.961 1.992 22.945 6.484 30.426 5.484 8.977 17.953 15.461 30.422 15.461 18.457 0 29.93-8.477 43.895-32.418zM325.783 633.279c0-8.781 1.656-16.484 4.969-23.109 3.32-6.633 7.836-11.738 13.547-15.312 5.719-3.57 12.098-5.359 19.141-5.359 6.02 0 11.301 1.227 15.844 3.672s8.035 5.664 10.484 9.641v-12.094h26.188v85.422h-26.187v-12.094c-2.543 3.98-6.086 7.195-10.625 9.641s-9.824 3.672-15.844 3.672c-6.949 0-13.281-1.805-19-5.422-5.711-3.625-10.227-8.781-13.547-15.469-3.312-6.687-4.969-14.414-4.969-23.187zm63.984.156c0-6.531-1.812-11.68-5.437-15.453-3.617-3.781-8.027-5.672-13.234-5.672-5.199 0-9.609 1.867-13.234 5.594-3.625 3.719-5.437 8.844-5.437 15.375s1.813 11.715 5.438 15.547c3.625 3.824 8.035 5.734 13.234 5.734 5.207 0 9.617-1.883 13.234-5.656 3.625-3.781 5.438-8.937 5.438-15.469zm97.209-43.641c10 0 17.984 3.246 23.953 9.734 5.977 6.48 8.969 15.383 8.969 26.703v49.906h-26.031v-46.375c0-5.719-1.48-10.16-4.437-13.328s-6.937-4.75-11.937-4.75-8.98 1.586-11.937 4.75-4.437 7.609-4.437 13.328v46.375h-26.187v-85.422h26.188v11.328c2.645-3.77 6.211-6.754 10.703-8.953 4.5-2.195 9.551-3.297 15.156-3.297zm118.49-21.109v73.156c0 11.336-3.195 20.063-9.578 26.188-6.375 6.125-14.969 9.188-25.781 9.188-11.324 0-20.406-3.211-27.25-9.641-6.836-6.437-10.25-15.57-10.25-27.406h26.016c0 4.492.914 7.887 2.75 10.188 1.844 2.293 4.5 3.438 7.969 3.438 3.164 0 5.613-1.02 7.344-3.062 1.738-2.039 2.609-5.004 2.609-8.891v-73.156zm60.012 108.531c-7.867 0-14.914-1.273-21.141-3.828-6.219-2.551-11.195-6.328-14.922-11.328-3.719-5-5.684-11.02-5.891-18.062H651.4c.406 3.98 1.781 7.016 4.125 9.109 2.344 2.086 5.406 3.125 9.188 3.125 3.875 0 6.93-.891 9.172-2.672 2.25-1.789 3.375-4.266 3.375-7.422 0-2.656-.898-4.848-2.687-6.578-1.781-1.738-3.977-3.172-6.578-4.297-2.594-1.125-6.293-2.398-11.094-3.828-6.937-2.133-12.605-4.273-17-6.422-4.387-2.145-8.164-5.305-11.328-9.484-3.156-4.187-4.734-9.648-4.734-16.391 0-10 3.617-17.828 10.859-23.484 7.25-5.664 16.691-8.5 28.328-8.5 11.844 0 21.383 2.836 28.625 8.5 7.25 5.656 11.129 13.539 11.641 23.641h-28.328c-.199-3.469-1.477-6.195-3.828-8.187-2.344-1.988-5.355-2.984-9.031-2.984-3.156 0-5.711.844-7.656 2.531-1.937 1.68-2.906 4.102-2.906 7.266 0 3.469 1.629 6.172 4.891 8.109 3.27 1.938 8.379 4.031 15.328 6.281 6.938 2.344 12.57 4.59 16.906 6.734 4.332 2.137 8.082 5.246 11.25 9.328s4.75 9.34 4.75 15.766c0 6.125-1.559 11.688-4.672 16.688s-7.633 8.984-13.547 11.953c-5.918 2.961-12.906 4.438-20.969 4.438zm0 0" fill="#fff"/></svg>